HIERARCHY
ROOT Hips
{
	OFFSET 0.000000 8.830580 0.000000
	CHANNELS 6 Xposition Yposition Zposition Zrotation Yrotation Xrotation 
	JOINT Spine
	{
		OFFSET 0.000000 0.010000 0.000000
		CHANNELS 3 Zrotation Yrotation Xrotation
		JOINT Spine1
		{
			OFFSET 0.000000 2.459130 0.000000
			CHANNELS 3 Zrotation Yrotation Xrotation
			JOINT Neck
			{
				OFFSET 0.000000 2.484630 0.000000
				CHANNELS 3 Zrotation Yrotation Xrotation
				JOINT Head_virtual
				{
					OFFSET 0.000000 0.000000 0.000000
					CHANNELS 3 Zrotation Yrotation Xrotation
					JOINT Head
					{
						OFFSET 0.000000 0.927525 0.000000
						CHANNELS 3 Zrotation Yrotation Xrotation
						End Site
						{
							OFFSET 0.000000 0.000000 0.000000
						}
					}
				}
				JOINT LeftUpArm_virtual
				{
					OFFSET 0.000000 0.000000 0.000000
					CHANNELS 3 Zrotation Yrotation Xrotation
					JOINT LeftUpArm
					{
						OFFSET 1.248820 0.000000 0.000000
						CHANNELS 3 Zrotation Yrotation Xrotation
						JOINT LeftForeArm
						{
							OFFSET 2.597580 0.000000 0.000000
							CHANNELS 3 Zrotation Yrotation Xrotation
							JOINT LeftHand
							{
								OFFSET 2.455420 0.000000 0.000000
								CHANNELS 3 Zrotation Yrotation Xrotation
								End Site
								{
									OFFSET 0.000000 0.000000 0.000000
								}
							}
						}
					}
				}
				JOINT RightUpArm_virtual
				{
					OFFSET -0.000000 -0.000000 -0.000000
					CHANNELS 3 Zrotation Yrotation Xrotation
					JOINT RightUpArm
					{
						OFFSET -1.248820 -0.000000 -0.000000
						CHANNELS 3 Zrotation Yrotation Xrotation
						JOINT RightForeArm
						{
							OFFSET -2.597580 -0.000000 -0.000000
							CHANNELS 3 Zrotation Yrotation Xrotation
							JOINT RightHand
							{
								OFFSET -2.455420 -0.000000 -0.000000
								CHANNELS 3 Zrotation Yrotation Xrotation
								End Site
								{
									OFFSET 0.000000 0.000000 0.000000
								}
							}
						}
					}
				}
			}
		}
	}
	JOINT LeftUpLeg
	{
		OFFSET 1.271939 0.000000 0.000000
		CHANNELS 3 Zrotation Yrotation Xrotation
		JOINT LeftLowLeg
		{
			OFFSET 0.000000 -4.342910 0.000000
			CHANNELS 3 Zrotation Yrotation Xrotation
			JOINT LeftFoot
			{
				OFFSET 0.000000 -4.487670 0.000000
				CHANNELS 3 Zrotation Yrotation Xrotation
				JOINT LeftToeBase
				{
					OFFSET 0.000000 0.000000 1.515070
					CHANNELS 3 Zrotation Yrotation Xrotation
					End Site
					{
						OFFSET 0.000000 0.000000 0.000000
					}
				}
			}
		}
	}
	JOINT RightUpLeg
	{
		OFFSET -1.271939 0.000000 0.000000
		CHANNELS 3 Zrotation Yrotation Xrotation
		JOINT RightLowLeg
		{
			OFFSET 0.000000 -4.342910 0.000000
			CHANNELS 3 Zrotation Yrotation Xrotation
			JOINT RightFoot
			{
				OFFSET 0.000000 -4.487670 0.000000
				CHANNELS 3 Zrotation Yrotation Xrotation
				JOINT RightToeBase
				{
					OFFSET 0.000000 0.000000 1.515070
					CHANNELS 3 Zrotation Yrotation Xrotation
					End Site
					{
						OFFSET 0.000000 0.000000 0.000000
					}
				}
			}
		}
	}
}
MOTION
Frames: 14
Frame Time: 0.041667
-15.757335 9.010292 27.853837 -175.907238 -35.389824 -151.095929 13.887617 6.261606 31.492769 -8.459140 -2.347226 42.495127 0.000000 0.000000 0.000000 14.605037 10.926758 8.666881 -19.774363 -24.844226 -105.444356 -2.790150 4.330220 -48.737400 -62.682800 -59.424000 20.453400 0.000000 -48.831600 0.000000 26.488199 16.565901 6.750760 19.630699 2.305500 -10.182600 -82.672096 60.509399 -74.322998 0.000000 8.117120 0.000000 -36.651299 18.414400 36.380402 6.009442 -9.355595 -40.025004 0.000000 0.000000 6.527390 -3.187353 8.479045 5.121840 0.000000 0.000000 -9.450620 -2.484882 12.297540 -44.714729 0.000000 0.000000 12.570100 4.391366 -21.237575 9.613551 0.000000 0.000000 -17.695380 
-15.759844 9.012127 27.840790 -175.880525 -35.523681 -151.069335 13.964393 6.204893 31.444518 -8.692411 -2.415854 42.432434 0.000000 0.000000 0.000000 14.192583 11.108431 8.308045 -19.799076 -24.948949 -105.406179 -2.664220 4.342090 -48.733002 -62.726700 -59.266998 20.563601 0.000000 -48.979401 0.000000 26.601500 16.849600 5.738050 19.594000 2.369750 -10.186400 -82.214699 60.906700 -73.437012 0.000000 8.768700 0.000000 -34.889301 19.310200 35.753799 5.927452 -9.181844 -39.992104 0.000000 0.000000 6.536290 -3.240314 8.154307 5.068143 0.000000 0.000000 -9.461510 -2.506513 12.393238 -44.711608 0.000000 0.000000 12.629500 4.420793 -21.425766 9.498577 0.000000 0.000000 -17.676800 
-15.762713 9.014097 27.826803 -175.860324 -35.640047 -150.993249 14.040907 6.174777 31.398572 -8.937283 -2.492924 42.281287 0.000000 0.000000 0.000000 13.744063 11.354347 7.900733 -19.633105 -25.060496 -105.397986 -2.589270 4.338670 -48.793900 -62.767799 -59.038700 20.827200 0.000000 -49.064201 0.000000 26.548700 16.570499 6.535350 19.458900 2.369710 -10.472600 -81.512299 61.750900 -72.964996 0.000000 9.761830 0.000000 -30.270901 18.952101 35.383202 5.902066 -9.065662 -39.971858 0.000000 0.000000 6.486840 -3.347326 7.890373 5.002379 0.000000 0.000000 -9.413890 -2.492419 12.431782 -44.704826 0.000000 0.000000 12.615300 4.406241 -21.545628 9.417255 0.000000 0.000000 -17.608120 
-15.765254 9.016201 27.811297 -175.855691 -35.732348 -150.861297 13.948523 6.248443 31.269379 -8.771446 -2.459540 42.165284 0.000000 0.000000 0.000000 13.317722 11.393971 7.332949 -19.507746 -25.238726 -105.376438 -2.675230 3.974860 -48.664600 -62.347099 -58.959499 20.767799 0.000000 -49.172100 0.000000 26.382000 16.578400 6.657160 19.060699 2.180240 -11.073100 -80.625801 62.891602 -72.449005 0.000000 11.044300 0.000000 -24.042900 16.244400 36.156300 5.869874 -8.937091 -40.007160 0.000000 0.000000 6.472950 -3.445830 7.662538 4.916710 0.000000 0.000000 -9.388450 -2.469957 12.449631 -44.736894 0.000000 0.000000 12.599000 4.399909 -21.642450 9.323062 0.000000 0.000000 -17.678940 
-15.768926 9.018829 27.794354 -175.856562 -35.770269 -150.755260 14.110794 6.246929 31.266555 -9.261579 -2.569013 41.957249 0.000000 0.000000 0.000000 12.922436 11.569488 6.822854 -19.447127 -25.323887 -105.431393 -2.606980 3.838920 -48.419498 -61.660900 -58.927799 20.596500 0.000000 -49.282101 0.000000 26.390100 16.678600 6.584040 18.923700 2.279410 -11.417100 -80.143700 64.048500 -72.300995 0.000000 12.388700 0.000000 -17.074800 11.418700 36.893902 5.845730 -8.827733 -40.032307 0.000000 0.000000 6.530660 -3.571366 7.485629 4.796876 0.000000 0.000000 -9.378990 -2.389903 12.414013 -44.708176 0.000000 0.000000 12.563300 4.336906 -21.619057 9.263316 0.000000 0.000000 -17.684810 
-15.771643 9.021165 27.775679 -175.865457 -35.751475 -150.612094 13.921291 6.464968 31.164798 -8.901870 -2.462217 41.836038 0.000000 0.000000 0.000000 12.691217 11.365573 6.027701 -19.357937 -25.438198 -105.439777 -2.846070 3.182600 -48.086399 -60.866600 -59.023102 20.285700 0.000000 -49.343101 0.000000 26.456600 16.733999 6.748640 18.486200 1.949890 -12.085800 -79.667397 65.502197 -72.390991 0.000000 13.349400 0.000000 -11.185900 7.533390 39.966400 5.709266 -8.554005 -40.104086 0.000000 0.000000 6.677620 -3.622619 7.207259 4.642259 0.000000 0.000000 -9.385690 -2.346862 12.439449 -44.721578 0.000000 0.000000 12.533500 4.229605 -21.615811 9.206016 0.000000 0.000000 -17.664590 
-15.775824 9.023841 27.754608 -175.873671 -35.694736 -150.544742 14.056770 6.543258 31.229018 -9.389982 -2.561149 41.633151 0.000000 0.000000 0.000000 12.225070 11.644940 5.487057 -19.008201 -25.576232 -105.613319 -2.833910 2.986690 -47.731602 -60.115700 -59.007099 19.858700 0.000000 -49.394001 0.000000 26.388500 16.635099 6.672370 18.409700 2.052390 -12.230900 -79.822899 66.846901 -72.822998 0.000000 13.715500 0.000000 -8.599350 4.345340 39.932598 5.699958 -8.468776 -40.083972 0.000000 0.000000 6.800750 -3.610545 7.184131 4.478228 0.000000 0.000000 -9.382200 -2.316362 12.518350 -44.681881 0.000000 0.000000 12.559200 4.130999 -21.631786 9.141089 0.000000 0.000000 -17.661030 
-15.779063 9.026229 27.730924 -175.884107 -35.590090 -150.390193 14.068407 6.718941 31.184067 -9.728268 -2.622449 41.484739 0.000000 0.000000 0.000000 12.075790 11.612656 4.862444 -18.953879 -25.571195 -105.700091 -2.936480 2.728150 -47.353699 -59.375000 -59.101601 19.478901 0.000000 -49.346298 0.000000 26.453400 16.618299 6.657190 18.371300 2.252620 -12.346400 -79.996101 68.143997 -73.209015 0.000000 13.880800 0.000000 -7.585800 2.448030 40.524799 5.778557 -8.470761 -40.153192 0.000000 0.000000 6.941660 -3.569623 7.376999 4.274647 0.000000 0.000000 -9.377280 -2.330790 12.660030 -44.743608 0.000000 0.000000 12.598800 4.024170 -21.688329 9.082272 0.000000 0.000000 -17.686400 
-15.783630 9.028967 27.706974 -175.905050 -35.506080 -150.288596 13.986686 6.918964 31.120576 -9.665557 -2.536241 41.498834 0.000000 0.000000 0.000000 12.125821 11.185395 3.902015 -19.131467 -25.491689 -105.617263 -3.059590 2.268880 -46.898998 -58.572800 -59.314301 18.910700 0.000000 -49.271702 0.000000 26.472300 16.662300 6.628240 18.226299 2.286490 -12.313700 -80.361000 69.057602 -73.635010 0.000000 13.858000 0.000000 -7.327840 1.684280 41.309502 5.915525 -8.594251 -40.194414 0.000000 0.000000 7.127160 -3.510406 7.663648 4.090902 0.000000 0.000000 -9.400550 -2.348357 12.792753 -44.759786 0.000000 0.000000 12.689500 3.958010 -21.730822 8.979232 0.000000 0.000000 -17.701270 
-15.788512 9.031987 27.680346 -175.896599 -35.423714 -150.148704 14.168043 7.005251 31.076527 -10.282959 -2.583500 41.481870 0.000000 0.000000 0.000000 11.832662 11.352365 3.099972 -18.912417 -25.397332 -105.654918 -2.976260 2.205350 -46.053398 -57.410198 -59.819401 17.875000 0.000000 -49.231602 0.000000 26.502701 16.658800 6.895550 18.366100 2.717720 -12.151100 -80.849998 69.926903 -74.153992 0.000000 13.715400 0.000000 -7.314970 1.475540 42.006100 6.118843 -8.743417 -40.290448 0.000000 0.000000 7.330730 -3.493068 8.005556 3.849167 0.000000 0.000000 -9.338730 -2.338117 12.927968 -44.816271 0.000000 0.000000 12.782800 3.894006 -21.757631 8.875711 0.000000 0.000000 -17.687330 
-15.792735 9.035006 27.652837 -175.905132 -35.379183 -150.038416 13.981500 7.208829 31.030471 -9.912691 -2.472323 41.442572 0.000000 0.000000 0.000000 11.537317 11.254663 2.178463 -18.472975 -25.469519 -105.633292 -3.181740 1.720160 -45.702499 -56.702000 -59.870300 17.401199 0.000000 -49.140499 0.000000 26.560200 16.769600 7.011830 18.102600 2.790910 -12.268800 -81.016701 70.861397 -74.661011 0.000000 13.588100 0.000000 -7.120310 1.669810 42.768101 6.298154 -8.882099 -40.339612 0.000000 0.000000 7.517440 -3.463557 8.281105 3.648594 0.000000 0.000000 -9.339370 -2.349660 13.086135 -44.835443 0.000000 0.000000 12.876400 3.777860 -21.867135 8.784155 0.000000 0.000000 -17.673200 
-15.798221 9.038340 27.623652 -175.907065 -35.390592 -149.861535 14.212957 7.242612 30.995845 -10.446885 -2.490317 41.315445 0.000000 0.000000 0.000000 11.219078 11.557033 1.663623 -17.962390 -25.508521 -105.906475 -2.954060 1.654570 -45.461300 -56.150501 -59.748699 17.085100 0.000000 -48.990601 0.000000 26.277599 16.646999 6.604440 18.179701 3.231510 -12.131000 -80.985703 71.677902 -74.852997 0.000000 13.473500 0.000000 -7.360690 1.872050 42.750599 6.361510 -8.857032 -40.418256 0.000000 0.000000 7.667620 -3.379339 8.335351 3.491123 0.000000 0.000000 -9.344220 -2.339145 13.185062 -44.917283 0.000000 0.000000 13.000400 3.735571 -21.925028 8.653724 0.000000 0.000000 -17.703920 
-15.802609 9.041468 27.593663 -175.923360 -35.451363 -149.709237 14.102710 7.366303 30.927907 -10.118264 -2.365480 41.280947 0.000000 0.000000 0.000000 11.165349 11.293256 0.826475 -17.877047 -25.514558 -105.921463 -3.056460 1.339630 -45.287201 -55.808399 -59.784000 17.029499 0.000000 -48.747299 0.000000 26.337000 16.541300 7.056750 17.897600 3.223910 -12.323500 -81.221497 72.579597 -75.423004 0.000000 13.270600 0.000000 -7.665130 2.066840 42.600899 6.444418 -8.886251 -40.471653 0.000000 0.000000 7.807980 -3.254433 8.421274 3.359260 0.000000 0.000000 -9.351750 -2.302094 13.252078 -44.950898 0.000000 0.000000 13.110500 3.665994 -22.014064 8.516271 0.000000 0.000000 -17.719380 
-15.807640 9.044755 27.562666 -175.929509 -35.558882 -149.552233 14.147909 7.392012 30.950533 -10.122794 -2.360155 41.072744 0.000000 0.000000 0.000000 11.315652 10.964300 0.176161 -18.182138 -25.393557 -105.859047 -3.085750 1.145110 -45.209400 -55.343800 -59.628899 17.030800 0.000000 -48.577099 0.000000 26.337000 16.513399 7.227000 17.882500 3.421870 -12.159900 -81.808197 73.185303 -76.026001 0.000000 13.016600 0.000000 -8.014080 2.025390 42.173401 6.580371 -8.982283 -40.527127 0.000000 0.000000 7.908450 -3.065463 8.581889 3.264590 0.000000 0.000000 -9.371150 -2.219909 13.271822 -44.975886 0.000000 0.000000 13.221400 3.631843 -22.077029 8.349735 0.000000 0.000000 -17.707240 
